<?xml version="1.0" encoding="UTF-8" standalone="no"?>
<!DOCTYPE svg PUBLIC "-//W3C//DTD SVG 1.1//EN" "http://www.w3.org/Graphics/SVG/1.1/DTD/svg11.dtd">
<svg version="1.1" xmlns="http://www.w3.org/2000/svg" xmlns:xlink="http://www.w3.org/1999/xlink" preserveAspectRatio="xMidYMid meet" viewBox="0 0 640 840" width="640" height="840"><defs><path d="M-5.74 -13.5L725.94 -13.5L725.94 1242.94L-5.74 1242.94L-5.74 -13.5Z" id="c4Dkuo0Iyb"></path><path d="M549.65 80.21L549.77 80.22L549.88 80.24L550 80.26L550.11 80.28L550.21 80.31L550.32 80.35L550.43 80.39L550.53 80.43L550.63 80.48L550.73 80.53L550.83 80.58L550.92 80.64L551.02 80.7L551.11 80.77L551.19 80.83L551.28 80.91L551.36 80.98L551.44 81.06L551.51 81.14L551.59 81.22L551.66 81.31L551.72 81.4L551.79 81.49L551.85 81.59L551.9 81.69L551.96 81.79L552 81.89L552.05 81.99L552.09 82.1L552.13 82.21L552.16 82.32L552.19 82.43L552.22 82.54L552.24 82.66L552.25 82.78L552.27 82.89L552.27 83.01L552.27 83.14L552.27 141.88L609.37 141.88L609.49 141.88L609.6 141.89L609.72 141.9L609.83 141.92L609.95 141.94L610.06 141.97L610.17 142L610.27 142.03L610.38 142.07L610.48 142.11L610.58 142.16L610.68 142.21L610.78 142.26L610.87 142.32L610.97 142.38L611.06 142.45L611.14 142.52L611.23 142.59L611.31 142.66L611.39 142.74L611.46 142.82L611.54 142.91L611.61 142.99L611.67 143.08L611.74 143.18L611.8 143.27L611.85 143.37L611.91 143.47L611.96 143.57L612 143.68L612.04 143.78L612.08 143.89L612.11 144L612.14 144.11L612.17 144.23L612.19 144.34L612.2 144.46L612.22 144.58L612.22 144.7L612.23 144.82L612.23 191.82L612.22 191.94L612.22 192.06L612.2 192.17L612.19 192.29L612.17 192.41L612.14 192.52L612.11 192.63L612.08 192.74L612.04 192.85L612 192.96L611.96 193.06L611.91 193.16L611.85 193.26L611.8 193.36L611.74 193.46L611.67 193.55L611.61 193.64L611.54 193.73L611.46 193.81L611.39 193.89L611.31 193.97L611.23 194.05L611.14 194.12L611.06 194.19L610.97 194.25L610.87 194.31L610.78 194.37L610.68 194.42L610.58 194.47L610.48 194.52L610.38 194.56L610.27 194.6L610.17 194.64L610.06 194.67L609.95 194.69L609.83 194.71L609.72 194.73L609.6 194.74L609.49 194.75L609.37 194.75L552.27 194.75L552.27 253.5L552.27 253.62L552.27 253.74L552.25 253.86L552.24 253.97L552.22 254.09L552.19 254.2L552.16 254.32L552.13 254.43L552.09 254.53L552.05 254.64L552 254.75L551.96 254.85L551.9 254.95L551.85 255.05L551.79 255.14L551.72 255.23L551.66 255.32L551.59 255.41L551.51 255.49L551.44 255.57L551.36 255.65L551.28 255.73L551.19 255.8L551.11 255.87L551.02 255.93L550.92 256L550.83 256.05L550.73 256.11L550.63 256.16L550.53 256.2L550.43 256.25L550.32 256.29L550.21 256.32L550.11 256.35L550 256.38L549.88 256.4L549.77 256.41L549.65 256.43L549.54 256.43L549.42 256.44L503.74 256.44L503.63 256.43L503.51 256.43L503.39 256.41L503.28 256.4L503.17 256.38L503.06 256.35L502.95 256.32L502.84 256.29L502.74 256.25L502.63 256.2L502.53 256.16L502.43 256.11L502.33 256.05L502.24 256L502.15 255.93L502.06 255.87L501.97 255.8L501.89 255.73L501.8 255.65L501.73 255.57L501.65 255.49L501.58 255.41L501.51 255.32L501.44 255.23L501.38 255.14L501.32 255.05L501.26 254.95L501.21 254.85L501.16 254.75L501.11 254.64L501.07 254.53L501.03 254.43L501 254.32L500.97 254.2L500.95 254.09L500.93 253.97L500.91 253.86L500.9 253.74L500.89 253.62L500.89 253.5L500.89 194.75L443.79 194.75L443.68 194.75L443.56 194.74L443.44 194.73L443.33 194.71L443.22 194.69L443.11 194.67L443 194.64L442.89 194.6L442.79 194.56L442.68 194.52L442.58 194.47L442.48 194.42L442.38 194.37L442.29 194.31L442.2 194.25L442.11 194.19L442.02 194.12L441.94 194.05L441.85 193.97L441.77 193.89L441.7 193.81L441.63 193.73L441.56 193.64L441.49 193.55L441.43 193.46L441.37 193.36L441.31 193.26L441.26 193.16L441.21 193.06L441.16 192.96L441.12 192.85L441.08 192.74L441.05 192.63L441.02 192.52L441 192.41L440.98 192.29L440.96 192.17L440.95 192.06L440.94 191.94L440.94 191.82L440.94 144.82L440.94 144.7L440.95 144.58L440.96 144.46L440.98 144.34L441 144.23L441.02 144.11L441.05 144L441.08 143.89L441.12 143.78L441.16 143.68L441.21 143.57L441.26 143.47L441.31 143.37L441.37 143.27L441.43 143.18L441.49 143.08L441.56 142.99L441.63 142.91L441.7 142.82L441.77 142.74L441.85 142.66L441.94 142.59L442.02 142.52L442.11 142.45L442.2 142.38L442.29 142.32L442.38 142.26L442.48 142.21L442.58 142.16L442.68 142.11L442.79 142.07L442.89 142.03L443 142L443.11 141.97L443.22 141.94L443.33 141.92L443.44 141.9L443.56 141.89L443.68 141.88L443.79 141.88L500.89 141.88L500.89 83.14L500.89 83.01L500.9 82.89L500.91 82.78L500.93 82.66L500.95 82.54L500.97 82.43L501 82.32L501.03 82.21L501.07 82.1L501.11 81.99L501.16 81.89L501.21 81.79L501.26 81.69L501.32 81.59L501.38 81.49L501.44 81.4L501.51 81.31L501.58 81.22L501.65 81.14L501.73 81.06L501.8 80.98L501.89 80.91L501.97 80.83L502.06 80.77L502.15 80.7L502.24 80.64L502.33 80.58L502.43 80.53L502.53 80.48L502.63 80.43L502.74 80.39L502.84 80.35L502.95 80.31L503.06 80.28L503.17 80.26L503.28 80.24L503.39 80.22L503.51 80.21L503.63 80.2L503.74 80.2L549.42 80.2L549.54 80.2L549.65 80.21Z" id="a1fzWD7ZY"></path><path d="M444.99 414.94C444.99 385.75 480.23 362.08 523.71 362.08C567.18 362.08 602.42 385.74 602.42 414.94C602.42 444.13 567.18 467.8 523.71 467.8C513.15 467.8 503.07 466.4 493.87 463.88C491.93 464.81 482.22 469.49 464.74 477.92L469.27 453.12C453.09 437.67 444.99 424.95 444.99 414.94Z" id="a35DYJaYUP"></path><path d="M375.65 564.27C387.73 576.36 387.32 596.36 374.74 608.94C339.88 643.8 278.83 617.34 277.87 618.3C277.87 618.3 277.87 618.3 277.87 618.3C278.83 617.34 252.37 556.28 287.23 521.43C299.81 508.84 319.81 508.43 331.89 520.52C343.98 532.6 344.83 551.33 332.24 563.92C344.83 551.33 363.56 552.19 375.65 564.27Z" id="a3LRZU2fei"></path><path d="M-5.74 590.1L366.53 861.39L-5.74 861.39L-5.74 590.1Z" id="bwNkYr7IH"></path><path d="M285.55 132.51C298.01 132.51 308.12 142.62 308.12 155.08C308.12 212.69 308.12 362.94 308.12 420.54C308.12 433.01 298.01 443.11 285.55 443.11C218.13 443.11 38.46 443.11 -28.96 443.11C-41.42 443.11 -51.53 433.01 -51.53 420.54C-51.53 362.94 -51.53 212.69 -51.53 155.08C-51.53 142.62 -41.42 132.51 -28.96 132.51C38.46 132.51 218.13 132.51 285.55 132.51Z" id="aiaxEdeIr"></path><path d="M376.44 248.11C376.44 286.36 345.82 317.42 308.12 317.42C270.41 317.42 239.8 286.36 239.8 248.11C239.8 209.86 270.41 178.81 308.12 178.81C345.82 178.81 376.44 209.86 376.44 248.11Z" id="bFRCKBebh"></path><path d="M174.29 682.23L225.94 689.87L188.57 726.91L197.39 779.21L151.19 754.51L104.99 779.21L113.81 726.91L76.44 689.87L128.09 682.23L151.19 634.65L174.29 682.23Z" id="c9CVjpGye"></path><path d="M563.8 664.85L603.9 725.74L523.7 725.74L443.51 725.74L483.6 664.85L523.7 603.96L563.8 664.85Z" id="aOq6g38yk"></path><path d="M54.25 287.81L136.33 298.89L147.41 380.97L72.18 420.62L14.6 363.04L54.25 287.81Z" id="aHks3HoyU"></path></defs><g><g><g><use xlink:href="#c4Dkuo0Iyb" opacity="1" fill="#ff9f1c" fill-opacity="1"></use><g><use xlink:href="#c4Dkuo0Iyb" opacity="1" fill-opacity="0" stroke="#ff9f1c" stroke-width="1" stroke-opacity="1"></use></g></g><g><use xlink:href="#a1fzWD7ZY" opacity="1" fill="#2ec4b6" fill-opacity="1"></use></g><g><use xlink:href="#a35DYJaYUP" opacity="1" fill="#fdfffc" fill-opacity="1"></use></g><g><use xlink:href="#a3LRZU2fei" opacity="1" fill="#e71d36" fill-opacity="1"></use></g><g><use xlink:href="#bwNkYr7IH" opacity="1" fill="#fdfffc" fill-opacity="1"></use></g><g><use xlink:href="#aiaxEdeIr" opacity="1" fill="#fdfffc" fill-opacity="1"></use></g><g><use xlink:href="#bFRCKBebh" opacity="1" fill="#e71d36" fill-opacity="1"></use></g><g><use xlink:href="#c9CVjpGye" opacity="1" fill="#2ec4b6" fill-opacity="1"></use></g><g><use xlink:href="#aOq6g38yk" opacity="1" fill="#011627" fill-opacity="1"></use></g><g><use xlink:href="#aHks3HoyU" opacity="1" fill="#ff9f1c" fill-opacity="1"></use></g></g></g></svg>