<?xml version="1.0" encoding="UTF-8" standalone="no"?>
<!DOCTYPE svg PUBLIC "-//W3C//DTD SVG 1.1//EN" "http://www.w3.org/Graphics/SVG/1.1/DTD/svg11.dtd">
<svg version="1.1" xmlns="http://www.w3.org/2000/svg" xmlns:xlink="http://www.w3.org/1999/xlink" preserveAspectRatio="xMidYMid meet" viewBox="0 0 640 840" width="640" height="840"><defs><path d="M455.54 110.89C461.07 110.89 465.54 115.37 465.54 120.89C465.54 146.42 465.54 212.99 465.54 238.51C465.54 244.04 461.07 248.51 455.54 248.51C427.64 248.51 353.94 248.51 326.04 248.51C320.52 248.51 316.04 244.04 316.04 238.51C316.04 212.99 316.04 146.42 316.04 120.89C316.04 115.37 320.52 110.89 326.04 110.89C353.94 110.89 427.64 110.89 455.54 110.89Z" id="g4XSKWgW3"></path><path d="M-5.74 -14.85L725.94 -14.85L725.94 1241.58L-5.74 1241.58L-5.74 -14.85Z" id="a1lEYfVKhW"></path><path d="M508.91 102.98L509.03 102.99L509.14 103.01L509.25 103.03L509.37 103.06L509.47 103.09L509.58 103.12L509.69 103.16L509.79 103.2L509.89 103.25L509.99 103.3L510.09 103.35L510.18 103.41L510.28 103.47L510.37 103.54L510.45 103.61L510.54 103.68L510.62 103.75L510.7 103.83L510.77 103.91L510.85 104L510.92 104.08L510.98 104.17L511.05 104.27L511.11 104.36L511.16 104.46L511.22 104.56L511.26 104.66L511.31 104.76L511.35 104.87L511.39 104.98L511.42 105.09L511.45 105.2L511.48 105.32L511.5 105.43L511.51 105.55L511.53 105.67L511.53 105.79L511.53 105.91L511.53 164.65L568.63 164.65L568.75 164.66L568.86 164.66L568.98 164.68L569.09 164.69L569.21 164.71L569.32 164.74L569.43 164.77L569.53 164.8L569.64 164.84L569.74 164.88L569.84 164.93L569.94 164.98L570.04 165.04L570.13 165.09L570.23 165.16L570.32 165.22L570.4 165.29L570.49 165.36L570.57 165.44L570.65 165.51L570.72 165.6L570.8 165.68L570.87 165.77L570.93 165.86L571 165.95L571.06 166.04L571.11 166.14L571.17 166.24L571.22 166.34L571.26 166.45L571.3 166.55L571.34 166.66L571.37 166.77L571.4 166.89L571.43 167L571.45 167.11L571.46 167.23L571.48 167.35L571.48 167.47L571.49 167.59L571.49 214.59L571.48 214.71L571.48 214.83L571.46 214.95L571.45 215.06L571.43 215.18L571.4 215.29L571.37 215.41L571.34 215.52L571.3 215.62L571.26 215.73L571.22 215.83L571.17 215.94L571.11 216.04L571.06 216.13L571 216.23L570.93 216.32L570.87 216.41L570.8 216.5L570.72 216.58L570.65 216.66L570.57 216.74L570.49 216.82L570.4 216.89L570.32 216.96L570.23 217.02L570.13 217.08L570.04 217.14L569.94 217.2L569.84 217.25L569.74 217.29L569.64 217.34L569.53 217.37L569.43 217.41L569.32 217.44L569.21 217.47L569.09 217.49L568.98 217.5L568.86 217.51L568.75 217.52L568.63 217.52L511.53 217.52L511.53 276.27L511.53 276.39L511.53 276.51L511.51 276.63L511.5 276.75L511.48 276.86L511.45 276.98L511.42 277.09L511.39 277.2L511.35 277.31L511.31 277.41L511.26 277.52L511.22 277.62L511.16 277.72L511.11 277.82L511.05 277.91L510.98 278L510.92 278.09L510.85 278.18L510.77 278.27L510.7 278.35L510.62 278.43L510.54 278.5L510.45 278.57L510.37 278.64L510.28 278.71L510.18 278.77L510.09 278.83L509.99 278.88L509.89 278.93L509.79 278.98L509.69 279.02L509.58 279.06L509.47 279.09L509.37 279.12L509.25 279.15L509.14 279.17L509.03 279.19L508.91 279.2L508.8 279.21L508.68 279.21L463 279.21L462.89 279.21L462.77 279.2L462.65 279.19L462.54 279.17L462.43 279.15L462.32 279.12L462.21 279.09L462.1 279.06L462 279.02L461.89 278.98L461.79 278.93L461.69 278.88L461.59 278.83L461.5 278.77L461.41 278.71L461.32 278.64L461.23 278.57L461.15 278.5L461.06 278.43L460.99 278.35L460.91 278.27L460.84 278.18L460.77 278.09L460.7 278L460.64 277.91L460.58 277.82L460.52 277.72L460.47 277.62L460.42 277.52L460.37 277.41L460.33 277.31L460.29 277.2L460.26 277.09L460.23 276.98L460.21 276.86L460.19 276.75L460.17 276.63L460.16 276.51L460.15 276.39L460.15 276.27L460.15 217.52L403.05 217.52L402.94 217.52L402.82 217.51L402.7 217.5L402.59 217.49L402.48 217.47L402.37 217.44L402.26 217.41L402.15 217.37L402.05 217.34L401.94 217.29L401.84 217.25L401.74 217.2L401.64 217.14L401.55 217.08L401.46 217.02L401.37 216.96L401.28 216.89L401.2 216.82L401.11 216.74L401.03 216.66L400.96 216.58L400.89 216.5L400.82 216.41L400.75 216.32L400.69 216.23L400.63 216.13L400.57 216.04L400.52 215.94L400.47 215.83L400.42 215.73L400.38 215.62L400.34 215.52L400.31 215.41L400.28 215.29L400.26 215.18L400.24 215.06L400.22 214.95L400.21 214.83L400.2 214.71L400.2 214.59L400.2 167.59L400.2 167.47L400.21 167.35L400.22 167.23L400.24 167.11L400.26 167L400.28 166.89L400.31 166.77L400.34 166.66L400.38 166.55L400.42 166.45L400.47 166.34L400.52 166.24L400.57 166.14L400.63 166.04L400.69 165.95L400.75 165.86L400.82 165.77L400.89 165.68L400.96 165.6L401.03 165.51L401.11 165.44L401.2 165.36L401.28 165.29L401.37 165.22L401.46 165.16L401.55 165.09L401.64 165.04L401.74 164.98L401.84 164.93L401.94 164.88L402.05 164.84L402.15 164.8L402.26 164.77L402.37 164.74L402.48 164.71L402.59 164.69L402.7 164.68L402.82 164.66L402.94 164.66L403.05 164.65L460.15 164.65L460.15 105.91L460.15 105.79L460.16 105.67L460.17 105.55L460.19 105.43L460.21 105.32L460.23 105.2L460.26 105.09L460.29 104.98L460.33 104.87L460.37 104.76L460.42 104.66L460.47 104.56L460.52 104.46L460.58 104.36L460.64 104.27L460.7 104.17L460.77 104.08L460.84 104L460.91 103.91L460.99 103.83L461.06 103.75L461.15 103.68L461.23 103.61L461.32 103.54L461.41 103.47L461.5 103.41L461.59 103.35L461.69 103.3L461.79 103.25L461.89 103.2L462 103.16L462.1 103.12L462.21 103.09L462.32 103.06L462.43 103.03L462.54 103.01L462.65 102.99L462.77 102.98L462.89 102.97L463 102.97L508.68 102.97L508.8 102.97L508.91 102.98Z" id="c2Xz3yMUYf"></path><path d="M308.12 80.2C308.12 118.45 277.51 149.5 239.8 149.5C202.1 149.5 171.49 118.45 171.49 80.2C171.49 41.95 202.1 10.89 239.8 10.89C277.51 10.89 308.12 41.95 308.12 80.2Z" id="b32bmrzyss"></path><path d="M356.14 375.74L396.24 436.63L316.04 436.63L235.84 436.63L275.94 375.74L316.04 314.85L356.14 375.74Z" id="c1sOo7oYrt"></path><path d="M26.93 294.44C26.93 265.25 62.17 241.58 105.64 241.58C149.12 241.58 184.36 265.25 184.36 294.44C184.36 323.64 149.12 347.31 105.65 347.31C95.09 347.31 85.01 345.91 75.81 343.38C73.87 344.32 64.16 349 46.68 357.43L51.21 332.62C35.02 317.18 26.93 304.45 26.93 294.44Z" id="a60ISLYOpe"></path><path d="M557.64 596.71C569.73 608.79 568.23 629.88 554.3 643.81C515.72 682.39 452.82 657.78 451.76 658.84C451.76 658.84 451.76 658.84 451.76 658.84C452.82 657.78 428.21 594.87 466.79 556.29C480.72 542.36 501.81 540.86 513.89 552.95C525.97 565.03 525.88 584.72 511.94 598.65C525.87 584.72 545.56 584.62 557.64 596.71Z" id="bulqdhpjS"></path><path d="M-5.74 590.1L366.53 861.39L-5.74 861.39L-5.74 590.1Z" id="bwNkYr7IH"></path><path d="M174.29 682.23L225.94 689.87L188.57 726.91L197.39 779.21L151.19 754.51L104.99 779.21L113.81 726.91L76.44 689.87L128.09 682.23L151.19 634.65L174.29 682.23Z" id="b1YX3yET6B"></path></defs><g><g><g><use xlink:href="#g4XSKWgW3" opacity="1" fill="#ecf4d0" fill-opacity="1"></use></g><g><use xlink:href="#a1lEYfVKhW" opacity="1" fill="#ff9f1c" fill-opacity="1"></use><g><use xlink:href="#a1lEYfVKhW" opacity="1" fill-opacity="0" stroke="#ff9f1c" stroke-width="1" stroke-opacity="1"></use></g></g><g><use xlink:href="#c2Xz3yMUYf" opacity="1" fill="#2ec4b6" fill-opacity="1"></use></g><g><use xlink:href="#b32bmrzyss" opacity="1" fill="#e71d36" fill-opacity="1"></use></g><g><use xlink:href="#c1sOo7oYrt" opacity="1" fill="#011627" fill-opacity="1"></use></g><g><use xlink:href="#a60ISLYOpe" opacity="1" fill="#fdfffc" fill-opacity="1"></use></g><g><use xlink:href="#bulqdhpjS" opacity="1" fill="#e71d36" fill-opacity="1"></use></g><g><use xlink:href="#bwNkYr7IH" opacity="1" fill="#fdfffc" fill-opacity="1"></use></g><g><use xlink:href="#b1YX3yET6B" opacity="1" fill="#2ec4b6" fill-opacity="1"></use></g></g></g></svg>