<?xml version="1.0" encoding="UTF-8" standalone="no"?>
<!DOCTYPE svg PUBLIC "-//W3C//DTD SVG 1.1//EN" "http://www.w3.org/Graphics/SVG/1.1/DTD/svg11.dtd">
<svg version="1.1" xmlns="http://www.w3.org/2000/svg" xmlns:xlink="http://www.w3.org/1999/xlink" preserveAspectRatio="xMidYMid meet" viewBox="0 0 640 840" width="640" height="840"><defs><path d="M-48.43 -7.4L683.26 -7.4L683.26 1249.03L-48.43 1249.03L-48.43 -7.4Z" id="c3dJy77IXp"></path><path d="M154.2 62.8L154.32 62.81L154.43 62.83L154.54 62.85L154.65 62.88L154.76 62.91L154.87 62.94L154.97 62.98L155.08 63.02L155.18 63.07L155.28 63.12L155.38 63.18L155.47 63.23L155.56 63.29L155.65 63.36L155.74 63.43L155.82 63.5L155.91 63.58L155.98 63.65L156.06 63.73L156.13 63.82L156.2 63.91L156.27 64L156.33 64.09L156.39 64.18L156.45 64.28L156.5 64.38L156.55 64.48L156.6 64.59L156.64 64.69L156.68 64.8L156.71 64.91L156.74 65.02L156.76 65.14L156.78 65.25L156.8 65.37L156.81 65.49L156.82 65.61L156.82 65.73L156.82 124.48L213.92 124.48L214.03 124.48L214.15 124.49L214.27 124.5L214.38 124.51L214.49 124.54L214.6 124.56L214.71 124.59L214.82 124.63L214.92 124.66L215.03 124.71L215.13 124.75L215.23 124.8L215.33 124.86L215.42 124.92L215.51 124.98L215.6 125.04L215.69 125.11L215.77 125.18L215.86 125.26L215.94 125.34L216.01 125.42L216.08 125.5L216.15 125.59L216.22 125.68L216.28 125.77L216.34 125.87L216.4 125.96L216.45 126.06L216.5 126.17L216.55 126.27L216.59 126.38L216.63 126.49L216.66 126.6L216.69 126.71L216.71 126.82L216.73 126.94L216.75 127.05L216.76 127.17L216.77 127.29L216.77 127.41L216.77 174.41L216.77 174.53L216.76 174.65L216.75 174.77L216.73 174.89L216.71 175L216.69 175.12L216.66 175.23L216.63 175.34L216.59 175.45L216.55 175.55L216.5 175.66L216.45 175.76L216.4 175.86L216.34 175.96L216.28 176.05L216.22 176.14L216.15 176.23L216.08 176.32L216.01 176.41L215.94 176.49L215.86 176.56L215.77 176.64L215.69 176.71L215.6 176.78L215.51 176.85L215.42 176.91L215.33 176.97L215.23 177.02L215.13 177.07L215.03 177.12L214.92 177.16L214.82 177.2L214.71 177.23L214.6 177.26L214.49 177.29L214.38 177.31L214.27 177.33L214.15 177.34L214.03 177.34L213.92 177.35L156.82 177.35L156.82 236.09L156.82 236.21L156.81 236.33L156.8 236.45L156.78 236.57L156.76 236.68L156.74 236.8L156.71 236.91L156.68 237.02L156.64 237.13L156.6 237.24L156.55 237.34L156.5 237.44L156.45 237.54L156.39 237.64L156.33 237.74L156.27 237.83L156.2 237.92L156.13 238L156.06 238.09L155.98 238.17L155.91 238.25L155.82 238.32L155.74 238.4L155.65 238.46L155.56 238.53L155.47 238.59L155.38 238.65L155.28 238.7L155.18 238.75L155.08 238.8L154.97 238.84L154.87 238.88L154.76 238.92L154.65 238.95L154.54 238.97L154.43 238.99L154.32 239.01L154.2 239.02L154.08 239.03L153.97 239.03L108.29 239.03L108.17 239.03L108.06 239.02L107.94 239.01L107.83 238.99L107.72 238.97L107.6 238.95L107.5 238.92L107.39 238.88L107.28 238.84L107.18 238.8L107.08 238.75L106.98 238.7L106.88 238.65L106.79 238.59L106.69 238.53L106.6 238.46L106.52 238.4L106.43 238.32L106.35 238.25L106.27 238.17L106.2 238.09L106.12 238L106.05 237.92L105.99 237.83L105.92 237.74L105.86 237.64L105.81 237.54L105.75 237.44L105.71 237.34L105.66 237.24L105.62 237.13L105.58 237.02L105.55 236.91L105.52 236.8L105.49 236.68L105.47 236.57L105.46 236.45L105.44 236.33L105.44 236.21L105.44 236.09L105.44 177.35L48.34 177.35L48.22 177.34L48.11 177.34L47.99 177.33L47.88 177.31L47.76 177.29L47.65 177.26L47.54 177.23L47.44 177.2L47.33 177.16L47.23 177.12L47.13 177.07L47.03 177.02L46.93 176.97L46.84 176.91L46.74 176.85L46.65 176.78L46.57 176.71L46.48 176.64L46.4 176.56L46.32 176.49L46.25 176.41L46.17 176.32L46.1 176.23L46.04 176.14L45.97 176.05L45.91 175.96L45.86 175.86L45.8 175.76L45.75 175.66L45.71 175.55L45.67 175.45L45.63 175.34L45.6 175.23L45.57 175.12L45.54 175L45.52 174.89L45.51 174.77L45.49 174.65L45.49 174.53L45.48 174.41L45.48 127.41L45.49 127.29L45.49 127.17L45.51 127.05L45.52 126.94L45.54 126.82L45.57 126.71L45.6 126.6L45.63 126.49L45.67 126.38L45.71 126.27L45.75 126.17L45.8 126.06L45.86 125.96L45.91 125.87L45.97 125.77L46.04 125.68L46.1 125.59L46.17 125.5L46.25 125.42L46.32 125.34L46.4 125.26L46.48 125.18L46.57 125.11L46.65 125.04L46.74 124.98L46.84 124.92L46.93 124.86L47.03 124.8L47.13 124.75L47.23 124.71L47.33 124.66L47.44 124.63L47.54 124.59L47.65 124.56L47.76 124.54L47.88 124.51L47.99 124.5L48.11 124.49L48.22 124.48L48.34 124.48L105.44 124.48L105.44 65.73L105.44 65.61L105.44 65.49L105.46 65.37L105.47 65.25L105.49 65.14L105.52 65.02L105.55 64.91L105.58 64.8L105.62 64.69L105.66 64.59L105.71 64.48L105.75 64.38L105.81 64.28L105.86 64.18L105.92 64.09L105.99 64L106.05 63.91L106.12 63.82L106.2 63.73L106.27 63.65L106.35 63.58L106.43 63.5L106.52 63.43L106.6 63.36L106.69 63.29L106.79 63.23L106.88 63.18L106.98 63.12L107.08 63.07L107.18 63.02L107.28 62.98L107.39 62.94L107.5 62.91L107.6 62.88L107.72 62.85L107.83 62.83L107.94 62.81L108.06 62.8L108.17 62.8L108.29 62.79L153.97 62.79L154.08 62.8L154.2 62.8Z" id="alNZkqT4o"></path><path d="M82.8 478.35C82.8 449.16 118.04 425.49 161.51 425.49C204.98 425.49 240.22 449.16 240.22 478.35C240.22 507.55 204.99 531.22 161.51 531.22C150.95 531.22 140.88 529.82 131.68 527.29C129.74 528.23 120.03 532.91 102.55 541.34L107.08 516.53C90.89 501.09 82.8 488.36 82.8 478.35Z" id="brHJkShhc"></path><path d="M434.7 550.86C446.79 562.94 446.38 582.94 433.79 595.53C398.94 630.39 337.88 603.92 336.93 604.88C336.93 604.88 336.93 604.88 336.93 604.88C337.88 603.92 311.42 542.87 346.28 508.01C358.87 495.43 378.87 495.02 390.95 507.1C403.03 519.18 403.89 537.92 391.3 550.51C403.89 537.92 422.62 538.78 434.7 550.86Z" id="b5z0Ugf6fO"></path><path d="M-5.74 590.1L366.53 861.39L-5.74 861.39L-5.74 590.1Z" id="bwNkYr7IH"></path><path d="M680.96 99.59C693.42 99.59 703.53 109.69 703.53 122.15C703.53 179.76 703.53 330.01 703.53 387.61C703.53 400.08 693.42 410.18 680.96 410.18C613.54 410.18 433.87 410.18 366.45 410.18C353.99 410.18 343.88 400.08 343.88 387.61C343.88 330.01 343.88 179.76 343.88 122.15C343.88 109.69 353.99 99.59 366.45 99.59C433.87 99.59 613.54 99.59 680.96 99.59Z" id="feJ9gLwMB"></path><path d="M448.77 125.41C448.77 163.66 418.16 194.72 380.46 194.72C342.75 194.72 312.14 163.66 312.14 125.41C312.14 87.16 342.75 56.1 380.46 56.1C418.16 56.1 448.77 87.16 448.77 125.41Z" id="aHRB7ycy"></path><path d="M174.29 682.23L225.94 689.87L188.57 726.91L197.39 779.21L151.19 754.51L104.99 779.21L113.81 726.91L76.44 689.87L128.09 682.23L151.19 634.65L174.29 682.23Z" id="c9CVjpGye"></path><path d="M563.8 664.85L603.9 725.74L523.7 725.74L443.51 725.74L483.6 664.85L523.7 603.96L563.8 664.85Z" id="c18FliRdG6"></path><path d="M492.07 264.76L574.15 275.84L585.23 357.92L510 397.57L452.42 339.99L492.07 264.76Z" id="cm9XwgyKW"></path><path d="M98.65 339.88C98.65 348.29 91.55 355.12 82.8 355.12C74.05 355.12 66.94 348.29 66.94 339.88C66.94 331.46 74.05 324.63 82.8 324.63C91.55 324.63 98.65 331.46 98.65 339.88Z" id="h3J9sydBpA"></path><path d="M138.6 340.88C138.6 349.29 131.5 356.12 122.75 356.12C114 356.12 106.89 349.29 106.89 340.88C106.89 332.46 114 325.63 122.75 325.63C131.5 325.63 138.6 332.46 138.6 340.88Z" id="djRSnQhNj"></path><path d="M119.14 375.32C119.14 383.74 112.03 390.57 103.28 390.57C94.53 390.57 87.43 383.74 87.43 375.32C87.43 366.91 94.53 360.08 103.28 360.08C112.03 360.08 119.14 366.91 119.14 375.32Z" id="fcL8CCqvy"></path></defs><g><g><g><use xlink:href="#c3dJy77IXp" opacity="1" fill="#ff9f1c" fill-opacity="1"></use><g><use xlink:href="#c3dJy77IXp" opacity="1" fill-opacity="0" stroke="#ff9f1c" stroke-width="1" stroke-opacity="1"></use></g></g><g><use xlink:href="#alNZkqT4o" opacity="1" fill="#2ec4b6" fill-opacity="1"></use></g><g><use xlink:href="#brHJkShhc" opacity="1" fill="#fdfffc" fill-opacity="1"></use></g><g><use xlink:href="#b5z0Ugf6fO" opacity="1" fill="#e71d36" fill-opacity="1"></use></g><g><use xlink:href="#bwNkYr7IH" opacity="1" fill="#fdfffc" fill-opacity="1"></use></g><g><use xlink:href="#feJ9gLwMB" opacity="1" fill="#fdfffc" fill-opacity="1"></use></g><g><use xlink:href="#aHRB7ycy" opacity="1" fill="#e71d36" fill-opacity="1"></use></g><g><use xlink:href="#c9CVjpGye" opacity="1" fill="#2ec4b6" fill-opacity="1"></use></g><g><use xlink:href="#c18FliRdG6" opacity="1" fill="#011627" fill-opacity="1"></use></g><g><use xlink:href="#cm9XwgyKW" opacity="1" fill="#ff9f1c" fill-opacity="1"></use></g><g><use xlink:href="#h3J9sydBpA" opacity="1" fill="#011627" fill-opacity="1"></use></g><g><use xlink:href="#djRSnQhNj" opacity="1" fill="#011627" fill-opacity="1"></use></g><g><use xlink:href="#fcL8CCqvy" opacity="1" fill="#011627" fill-opacity="1"></use></g></g></g></svg>